HIERARCHY
ROOT Hips
{
  OFFSET -4.35178 90.3298 111.633
  CHANNELS 6 Xposition Yposition Zposition Zrotation Xrotation Yrotation
  JOINT LeftUpLeg
  {
    OFFSET 0.103456 1.85784 10.5485
    CHANNELS 6 Xposition Yposition Zposition Zrotation Xrotation Yrotation
    JOINT LeftLeg
    {
      OFFSET 43.5 -4.2e-05 0
      CHANNELS 6 Xposition Yposition Zposition Zrotation Xrotation Yrotation
      JOINT LeftFoot
      {
        OFFSET 42.3722 1.9e-05 0
        CHANNELS 6 Xposition Yposition Zposition Zrotation Xrotation Yrotation
        JOINT LeftToe
        {
          OFFSET 17.3 0 0
          CHANNELS 6 Xposition Yposition Zposition Zrotation Xrotation Yrotation
          End Site
          {
            OFFSET 0 0 0
          }
        }
      }
    }
  }
  JOINT RightUpLeg
  {
    OFFSET 0.103456 1.85782 -10.5485
    CHANNELS 6 Xposition Yposition Zposition Zrotation Xrotation Yrotation
    JOINT RightLeg
    {
      OFFSET 43.5 -2.7e-05 0
      CHANNELS 6 Xposition Yposition Zposition Zrotation Xrotation Yrotation
      JOINT RightFoot
      {
        OFFSET 42.3723 0 0
        CHANNELS 6 Xposition Yposition Zposition Zrotation Xrotation Yrotation
        JOINT RightToe
        {
          OFFSET 17.3 0 1.7e-05
          CHANNELS 6 Xposition Yposition Zposition Zrotation Xrotation Yrotation
          End Site
          {
            OFFSET 0 0 0
          }
        }
      }
    }
  }
  JOINT Spine
  {
    OFFSET 6.90197 -2.60373 0
    CHANNELS 6 Xposition Yposition Zposition Zrotation Xrotation Yrotation
    JOINT Spine1
    {
      OFFSET 12.5881 0 0
      CHANNELS 6 Xposition Yposition Zposition Zrotation Xrotation Yrotation
      JOINT Spine2
      {
        OFFSET 12.3432 -1.8e-05 0
        CHANNELS 6 Xposition Yposition Zposition Zrotation Xrotation Yrotation
        JOINT Neck
        {
          OFFSET 25.8329 2.3e-05 0
          CHANNELS 6 Xposition Yposition Zposition Zrotation Xrotation Yrotation
          JOINT Head
          {
            OFFSET 11.7666 0 0
            CHANNELS 6 Xposition Yposition Zposition Zrotation Xrotation Yrotation
            End Site
            {
              OFFSET 0 0 0
            }
          }
        }
        JOINT LeftShoulder
        {
          OFFSET 19.7459 -1.48035 6.0001
          CHANNELS 6 Xposition Yposition Zposition Zrotation Xrotation Yrotation
          JOINT LeftArm
          {
            OFFSET 11.2841 1.8e-05 -2e-05
            CHANNELS 6 Xposition Yposition Zposition Zrotation Xrotation Yrotation
            JOINT LeftForeArm
            {
              OFFSET 33 -1.3e-05 1.9e-05
              CHANNELS 6 Xposition Yposition Zposition Zrotation Xrotation Yrotation
              JOINT LeftHand
              {
                OFFSET 25.2 3.2e-05 1.1e-05
                CHANNELS 6 Xposition Yposition Zposition Zrotation Xrotation Yrotation
                End Site
                {
                  OFFSET 0 0 0
                }
              }
            }
          }
        }
        JOINT RightShoulder
        {
          OFFSET 19.7461 -1.48036 -6.00008
          CHANNELS 6 Xposition Yposition Zposition Zrotation Xrotation Yrotation
          JOINT RightArm
          {
            OFFSET 11.2841 0 0
            CHANNELS 6 Xposition Yposition Zposition Zrotation Xrotation Yrotation
            JOINT RightForeArm
            {
              OFFSET 33.0001 1.6e-05 0
              CHANNELS 6 Xposition Yposition Zposition Zrotation Xrotation Yrotation
              JOINT RightHand
              {
                OFFSET 25.1998 0.000123 0.000432
                CHANNELS 6 Xposition Yposition Zposition Zrotation Xrotation Yrotation
                End Site
                {
                  OFFSET 0 0 0
                }
              }
            }
          }
        }
      }
    }
  }
}
MOTION
Frames:	11
Frame Time:	0.0333333
87.3525 91.1184 -152.424 -74.398 72.4392 170.649 0.103456 1.85784 10.5485 -8.28921 4.52588 -170.834 43.5 -4.2e-05 1e-05 -16.5099 -4.41773 -2.78663 42.3722 1.9e-05 0 65.7216 -1.51792 -4.10853 17.3 0 3e-06 21.4546 -1e-06 0.003093 0.103456 1.85782 -10.5485 3.33591 3.58276 -178.436 43.5 -2.7e-05 4e-06 -27.6228 4.74131 2.03161 42.3723 -2.84217e-14 1e-05 77.8963 -3.72989 -0.468795 17.3 -6e-06 1.7e-05 21.4546 -1.9e-05 -0.003116 6.90197 -2.60373 -3e-06 8.30621 0.129816 0.978482 12.5881 1e-05 8e-06 6.58383 0.496508 1.95605 12.3432 -1.8e-05 -5e-06 6.2483 0.713256 1.93519 25.8329 2.3e-05 7e-06 5.71728 -10.6369 4.03175 11.7666 -8e-06 -6e-06 -15.0449 -23.855 14.9232 19.7459 -1.48035 6.0001 -177.52 -8.41859 -90.6957 11.2841 1.8e-05 -2e-05 -16.6657 -9.45355 67.619 33 -1.3e-05 1.9e-05 -93.372 -15.5747 -6.46489 25.2 3.2e-05 1.1e-05 -36.7946 27.1522 3.06635 19.7461 -1.48036 -6.00008 -166.634 -10.7017 81.1241 11.2841 0 -1e-06 -26.5562 -4.30715 -36.03 33.0001 1.6e-05 -1e-06 -124.396 -7.28342 19.0485 25.1998 0.000123 0.000432 -3.83811 -5.70661 6.69215 
89.4944 90.7521 -150.918 -72.5873 76.0946 169.007 0.103456 1.85784 10.5485 -5.83441 3.50484 -171.879 43.5 -4.2e-05 1e-05 -9.72966 -1.89369 -3.32151 42.3722 1.9e-05 0 61.8852 -1.10529 -10.2194 17.3 1.42109e-14 3e-06 21.4546 -1e-06 0.003093 0.103456 1.85782 -10.5485 2.39597 5.36861 -179.962 43.5 -2.7e-05 4e-06 -31.3397 4.17573 1.93228 42.3723 1.42109e-14 1e-05 79.066 -3.49368 0.73433 17.3 -6e-06 1.7e-05 21.4546 -1.9e-05 -0.003116 6.90197 -2.60373 -3e-06 8.06576 0.209619 0.780499 12.5881 1e-05 8e-06 6.10283 0.615471 1.54941 12.3432 -1.8e-05 -5e-06 5.76796 0.799578 1.52141 25.8329 2.3e-05 7e-06 6.00885 -9.68591 3.28555 11.7666 -8e-06 -6e-06 -14.0619 -22.4606 15.5893 19.7459 -1.48035 6.0001 -176.904 -7.56021 -90.6013 11.2841 1.8e-05 -2e-05 -16.1201 -9.15793 66.8186 33 -1.3e-05 1.9e-05 -92.6905 -15.2991 -6.3437 25.2 3.2e-05 1.1e-05 -36.8642 26.9231 3.23239 19.7461 -1.48036 -6.00008 -168.944 -10.0547 82.0798 11.2841 2.84217e-14 -1e-06 -28.4218 -3.49929 -34.3156 33.0001 1.6e-05 -1e-06 -123.321 -8.77643 18.2377 25.1998 0.000123 0.000432 -3.11617 -5.51337 6.36756 
91.479 90.0765 -149.319 -68.3884 78.3407 164.876 0.103456 1.85784 10.5485 -5.63349 4.97818 -172.784 43.5 -4.2e-05 1e-05 -11.0649 -1.3643 -3.92155 42.3722 1.9e-05 0 60.9599 0.615259 -10.6511 17.3 0 3e-06 21.4546 -1e-06 0.003093 0.103456 1.85782 -10.5485 1.84839 6.23028 178.874 43.5 -2.7e-05 4e-06 -35.6213 3.89966 1.82658 42.3723 0 1e-05 80.341 -3.48703 1.81512 17.3 -6e-06 1.7e-05 21.4546 -1.9e-05 -0.003116 6.90197 -2.60373 -3e-06 7.94994 0.081192 0.632481 12.5881 1e-05 8e-06 5.87745 0.332674 1.27407 12.3432 -1.8e-05 -5e-06 5.54811 0.496959 1.26371 25.8329 2.3e-05 7e-06 6.24334 -8.72222 2.61613 11.7666 -8e-06 -6e-06 -12.9427 -21.302 16.563 19.7459 -1.48035 6.0001 -176.815 -6.50171 -90.8401 11.2841 1.8e-05 -2e-05 -16.3162 -9.09176 65.9461 33 -1.3e-05 1.9e-05 -91.6497 -14.8957 -6.15677 25.2 3.2e-05 1.1e-05 -36.4901 26.5803 3.4944 19.7461 -1.48036 -6.00008 -170.237 -9.39796 82.7238 11.2841 0 -1e-06 -29.3552 -1.47534 -33.6619 33.0001 1.6e-05 -1e-06 -122.701 -10.4795 17.347 25.1998 0.000123 0.000432 -1.8461 -4.62348 5.2288 
93.3992 89.2888 -147.571 -60.9823 79.8826 157.305 0.103456 1.85784 10.5485 -5.71896 6.63185 -173.361 43.5 -4.2e-05 1e-05 -17.1729 -2.57391 -4.03604 42.3722 1.9e-05 -2.84217e-14 68.3801 1.15519 -8.26329 17.3 -7.10543e-15 3e-06 21.4546 -1e-06 0.003093 0.103456 1.85782 -10.5485 1.30069 6.42535 178.13 43.5 -2.7e-05 4e-06 -40.6969 3.60147 1.31418 42.3723 0 1e-05 80.754 -3.58759 3.04431 17.3 -6e-06 1.7e-05 21.4546 -1.9e-05 -0.003116 6.90197 -2.60373 -3e-06 7.94847 -0.0872173 0.605991 12.5881 1e-05 8e-06 5.88035 -0.00712892 1.24685 12.3432 -1.8e-05 -5e-06 5.55615 0.156206 1.25752 25.8329 2.3e-05 7e-06 6.44039 -8.22939 2.30884 11.7666 -8e-06 -6e-06 -12.0345 -20.8161 17.121 19.7459 -1.48035 6.0001 -177.317 -5.53395 -91.077 11.2841 1.8e-05 -2e-05 -17.5457 -9.2 65.199 33 -1.3e-05 1.9e-05 -90.6391 -13.7952 -5.91655 25.2 3.2e-05 1.1e-05 -35.8326 26.424 3.74769 19.7461 -1.48036 -6.00008 -170.495 -8.78734 82.9091 11.2841 0 -1e-06 -29.3559 0.699609 -33.6058 33.0001 1.6e-05 -1e-06 -122.438 -11.7714 16.6908 25.1998 0.000123 0.000432 -0.75516 -4.28395 4.66954 
95.3599 88.715 -145.806 -52.5504 81.3042 149.026 0.103456 1.85784 10.5485 -3.85049 7.33406 -175.102 43.5 -4.2e-05 1e-05 -18.4969 -3.62237 -3.29393 42.3722 1.9e-05 0 72.73 1.33477 -6.38997 17.3 7.10543e-15 3e-06 21.4546 -1e-06 0.003093 0.103456 1.85782 -10.5485 -0.521436 6.51349 176.508 43.5 -2.7e-05 4e-06 -47.2653 2.62263 1.59125 42.3723 1.42109e-14 1e-05 78.1755 -3.75862 3.92795 17.3 -6e-06 1.7e-05 21.4546 -1.9e-05 -0.003116 6.90197 -2.60373 -3e-06 7.93436 -0.231792 0.511053 12.5881 1e-05 8e-06 5.85753 -0.310365 1.07949 12.3432 -1.8e-05 -5e-06 5.53874 -0.157078 1.10918 25.8329 2.3e-05 7e-06 6.48091 -7.60014 2.08937 11.7666 -8e-06 -6e-06 -10.9423 -20.4036 17.7416 19.7459 -1.48035 6.0001 -178.313 -4.90461 -91.4964 11.2841 1.8e-05 -2e-05 -19.6859 -9.42868 64.805 33 -1.3e-05 1.9e-05 -89.6359 -12.2732 -5.66039 25.2 3.2e-05 1.1e-05 -36.4573 26.9631 3.63457 19.7461 -1.48036 -6.00008 -169.944 -8.48206 82.1927 11.2841 0 -1e-06 -28.4794 2.09082 -34.2118 33.0001 1.6e-05 -1e-06 -122.262 -12.1156 16.6311 25.1998 0.000123 0.000432 -0.479009 -4.89742 5.31128 
97.1417 88.4887 -144.078 -38.2348 82.8447 135.023 0.103456 1.85784 10.5485 -1.56615 8.07928 -176.574 43.5 -4.2e-05 1e-05 -18.7326 -4.16646 -2.72559 42.3722 1.9e-05 0 74.9271 0.439278 -5.85565 17.3 1.42109e-14 3e-06 21.4546 -1e-06 0.003093 0.103456 1.85782 -10.5485 -3.70533 6.2312 173.855 43.5 -2.7e-05 4e-06 -54.6453 0.424913 2.77966 42.3723 1.42109e-14 1e-05 72.3744 -5.79139 4.77525 17.3 -6e-06 1.7e-05 21.4546 -1.9e-05 -0.003116 6.90197 -2.60373 -3e-06 7.99319 -0.329975 0.361361 12.5881 1e-05 8e-06 5.97885 -0.527091 0.796419 12.3432 -1.8e-05 -5e-06 5.66472 -0.389017 0.840243 25.8329 2.3e-05 7e-06 6.42363 -6.7541 1.84782 11.7666 -8e-06 -6e-06 -10.0362 -19.8509 18.4596 19.7459 -1.48035 6.0001 -179.38 -4.7354 -92.0639 11.2841 1.8e-05 -2e-05 -21.4369 -9.98661 65.2183 33 -1.3e-05 1.9e-05 -89.1361 -11.011 -5.52453 25.2 3.2e-05 1.1e-05 -36.4733 26.4018 3.93448 19.7461 -1.48036 -6.00008 -169.309 -8.61319 80.6626 11.2841 2.84217e-14 -1e-06 -27.3871 2.0983 -35.2652 33.0001 1.6e-05 -1e-06 -121.417 -11.3857 17.4007 25.1998 0.000123 0.000432 -0.902471 -5.94146 6.52401 
98.4848 88.4838 -142.36 -12.9118 83.7923 109.782 0.103456 1.85784 10.5485 1.18587 10.288 -176.783 43.5 -4.2e-05 1e-05 -18.2587 -4.33548 -3.27844 42.3722 1.9e-05 0 75.8915 -0.833571 -6.97381 17.3 7.10543e-15 3e-06 21.4546 -1e-06 0.003093 0.103456 1.85782 -10.5485 -7.19303 5.37699 171.59 43.5 -2.7e-05 4e-06 -61.3141 -1.26767 3.49273 42.3723 0 1e-05 66.8461 -7.87357 5.4756 17.3 -6e-06 1.7e-05 21.4546 -1.9e-05 -0.003116 6.90197 -2.60373 -3e-06 8.18458 -0.413806 0.247365 12.5881 1e-05 8e-06 6.36431 -0.706341 0.583669 12.3432 -1.8e-05 -5e-06 6.0539 -0.575197 0.63949 25.8329 2.3e-05 7e-06 6.32157 -6.00255 1.5322 11.7666 -8e-06 -6e-06 -9.30272 -19.0485 18.8845 19.7459 -1.48035 6.0001 179.833 -4.87551 -92.8232 11.2841 1.8e-05 -2e-05 -21.9311 -11.0661 66.408 33 -1.3e-05 1.9e-05 -89.1101 -10.4702 -5.51781 25.2 3.2e-05 1.1e-05 -35.4532 25.5519 4.26571 19.7461 -1.48036 -6.00008 -168.341 -9.30725 78.9033 11.2841 0 -1e-06 -26.1955 2.09002 -37.0046 33.0001 1.6e-05 -1e-06 -119.473 -11.6531 18.3191 25.1998 0.000123 0.000432 -1.15557 -8.27492 8.56396 
99.5943 88.6428 -140.485 19.7505 83.1754 77.1499 0.103456 1.85784 10.5485 5.47933 12.4591 -177.598 43.5 -4.2e-05 1e-05 -15.157 -5.00136 -3.59654 42.3722 1.9e-05 0 75.8417 -2.02892 -7.59231 17.3 7.10543e-15 3e-06 21.4546 -1e-06 0.003093 0.103456 1.85782 -10.5485 -10.0258 4.64761 169.847 43.5 -2.7e-05 4e-06 -66.7051 -1.56266 3.68224 42.3723 1.42109e-14 1e-05 63.7094 -5.31442 5.92902 17.3 -6e-06 1.7e-05 21.4546 -1.9e-05 -0.003116 6.90197 -2.60373 -3e-06 8.38372 -0.410108 0.124667 12.5881 1e-05 8e-06 6.76254 -0.713021 0.340236 12.3432 -1.8e-05 -5e-06 6.45323 -0.590862 0.397402 25.8329 2.3e-05 7e-06 6.19844 -5.29484 1.0906 11.7666 -8e-06 -6e-06 -8.76352 -17.903 18.8498 19.7459 -1.48035 6.0001 179.189 -5.32357 -93.3179 11.2841 1.8e-05 -2e-05 -22.1545 -11.8102 67.265 33 -1.3e-05 1.9e-05 -89.3682 -10.5012 -5.5765 25.2 3.2e-05 1.1e-05 -35.5349 24.9972 4.34349 19.7461 -1.48036 -6.00008 -166.998 -10.1619 77.0422 11.2841 0 -1e-06 -24.8354 1.76805 -39.4317 33.0001 1.6e-05 -1e-06 -116.763 -12.6688 19.3844 25.1998 0.000123 0.000432 -1.42938 -11.561 11.1365 
100.493 88.8131 -138.644 41.0599 81.2313 55.7064 0.103456 1.85784 10.5485 9.93135 13.6172 -178.962 43.5 -4.2e-05 1e-05 -11.0765 -5.89675 -3.49716 42.3722 1.9e-05 0 75.2919 -3.12411 -7.14656 17.3 -7.10543e-15 3e-06 21.4546 -1e-06 0.003093 0.103456 1.85782 -10.5485 -12.9492 3.03653 168.66 43.5 -2.7e-05 4e-06 -71.4607 0.0017954 4.055 42.3723 1.42109e-14 1e-05 65.9498 -2.76579 2.7671 17.3 -6e-06 1.7e-05 21.4546 -1.9e-05 -0.003116 6.90197 -2.60373 -3e-06 8.49091 -0.416314 0.0856392 12.5881 1e-05 8e-06 6.97707 -0.728894 0.26437 12.3432 -1.8e-05 -5e-06 6.6683 -0.608141 0.322896 25.8329 2.3e-05 7e-06 6.26732 -4.6694 0.550421 11.7666 -8e-06 -6e-06 -8.94347 -16.6687 18.2477 19.7459 -1.48035 6.0001 178.8 -5.78305 -93.4202 11.2841 1.8e-05 -2e-05 -22.2293 -12.1413 67.8967 33 -1.3e-05 1.9e-05 -90.0615 -10.448 -5.65886 25.2 3.2e-05 1.1e-05 -35.8293 24.7369 4.28998 19.7461 -1.48036 -6.00008 -165.718 -10.509 75.288 11.2841 0 -1e-06 -23.3939 0.669736 -41.8067 33.0001 1.6e-05 -1e-06 -113.254 -13.7526 20.7207 25.1998 0.000123 0.000432 -1.82742 -15.8803 14.4593 
101.158 88.9895 -136.888 52.1858 79.2387 44.2526 0.103456 1.85784 10.5485 13.299 14.5686 -179.87 43.5 -4.2e-05 1e-05 -8.09278 -6.58461 -3.64114 42.3722 1.9e-05 0 74.5885 -3.66179 -6.70044 17.3 0 3e-06 21.4546 -1e-06 0.003093 0.103456 1.85782 -10.5485 -15.878 1.00363 167.856 43.5 -2.7e-05 4e-06 -73.8601 1.5628 5.17284 42.3723 0 1e-05 70.278 0.408209 -2.86555 17.3 -6e-06 1.7e-05 21.4546 -1.9e-05 -0.003116 6.90197 -2.60373 -3e-06 8.49457 -0.495016 0.129887 12.5881 1e-05 8e-06 6.98656 -0.878539 0.365376 12.3432 -1.8e-05 -5e-06 6.67974 -0.751094 0.432998 25.8329 2.3e-05 7e-06 6.46907 -4.04944 0.052138 11.7666 -8e-06 -6e-06 -9.51398 -15.5896 17.6182 19.7459 -1.48035 6.0001 178.59 -6.09361 -93.3107 11.2841 1.8e-05 -2e-05 -22.2785 -12.224 68.3883 33 -1.3e-05 1.9e-05 -90.5747 -10.5645 -5.72216 25.2 3.2e-05 1.1e-05 -36.006 24.1569 4.41302 19.7461 -1.48036 -6.00008 -164.982 -10.2125 73.7652 11.2841 0 -1e-06 -21.8662 -1.37868 -43.481 33.0001 1.6e-05 -1e-06 -109.228 -12.92 22.3261 25.1998 0.000123 0.000432 -2.018 -19.6418 17.3942 
101.54 89.1497 -135.236 59.0276 77.474 36.889 0.103456 1.85784 10.5485 14.4624 15.7429 -179.792 43.5 -4.2e-05 1e-05 -8.56232 -6.96591 -4.26689 42.3722 1.9e-05 0 74.4357 -3.41501 -6.20594 17.3 0 3e-06 21.4546 -1e-06 0.003093 0.103456 1.85782 -10.5485 -18.6029 -0.973407 167.735 43.5 -2.7e-05 4e-06 -73.5888 2.57964 6.42683 42.3723 0 1e-05 72.1828 2.76506 -8.08909 17.3 -6e-06 1.7e-05 21.4546 -1.9e-05 -0.003116 6.90197 -2.60373 -3e-06 8.49031 -0.607721 0.208077 12.5881 1e-05 8e-06 6.98144 -1.09056 0.539492 12.3432 -1.8e-05 -5e-06 6.67727 -0.952001 0.61992 25.8329 2.3e-05 7e-06 6.63806 -3.12325 -0.493395 11.7666 -8e-06 -6e-06 -10.3559 -14.4642 17.4531 19.7459 -1.48035 6.0001 178.672 -6.02464 -93.1069 11.2841 1.8e-05 -2e-05 -22.0697 -12.3401 68.9313 33 -1.3e-05 1.9e-05 -90.7341 -10.3616 -5.72861 25.2 3.2e-05 1.1e-05 -36.1592 23.7022 4.54687 19.7461 -1.48036 -6.00008 -164.901 -9.44522 72.4101 11.2841 0 -1e-06 -20.0233 -3.45674 -44.1615 33.0001 1.6e-05 -1e-06 -104.241 -10.6384 23.5492 25.1998 0.000123 0.000432 -2.05589 -22.1317 19.1661 
